<svg width="20" height="20" viewBox="0 0 20 20" fill="none" xmlns="http://www.w3.org/2000/svg">
<path fill-rule="evenodd" clip-rule="evenodd" d="M9.99886 18.3346C5.39636 18.3346 1.66553 14.6038 1.66553 10.0013C1.66553 5.3988 5.39636 1.66797 9.99886 1.66797C14.6014 1.66797 18.3322 5.3988 18.3322 10.0013C18.3322 14.6038 14.6014 18.3346 9.99886 18.3346ZM9.99886 17.3346C11.9438 17.3346 13.809 16.562 15.1843 15.1868C16.5596 13.8115 17.3322 11.9462 17.3322 10.0013C17.3322 8.05638 16.5596 6.19112 15.1843 4.81585C13.809 3.44059 11.9438 2.66797 9.99886 2.66797C8.05394 2.66797 6.18868 3.44059 4.81341 4.81585C3.43814 6.19112 2.66553 8.05638 2.66553 10.0013C2.66553 11.9462 3.43814 13.8115 4.81341 15.1868C6.18868 16.562 8.05394 17.3346 9.99886 17.3346ZM9.49886 8.33464H10.4989V14.168H9.49886V8.33464ZM9.99886 7.5013C9.77785 7.5013 9.56589 7.4135 9.40961 7.25722C9.25332 7.10094 9.16553 6.88898 9.16553 6.66797C9.16553 6.44695 9.25332 6.23499 9.40961 6.07871C9.56589 5.92243 9.77785 5.83464 9.99886 5.83464C10.2199 5.83464 10.4318 5.92243 10.5881 6.07871C10.7444 6.23499 10.8322 6.44695 10.8322 6.66797C10.8322 6.88898 10.7444 7.10094 10.5881 7.25722C10.4318 7.4135 10.2199 7.5013 9.99886 7.5013Z" fill="#FFAE00"/>
</svg>
